{
    "asset" : {
        "generator" : "Khronos glTF Blender I/O v3.4.50",
        "version" : "2.0"
    },
    "scene" : 0,
    "scenes" : [
        {
            "name" : "Scene",
            "nodes" : [
                0,
                1,
                2,
                3,
                4,
                5
            ]
        }
    ],
    "nodes" : [
        {
            "mesh" : 0,
            "name" : "Plane.013",
            "translation" : [
                -0.250742644071579,
                0,
                -1.493436336517334
            ]
        },
        {
            "mesh" : 1,
            "name" : "Plane.014",
            "translation" : [
                -1.4977185726165771,
                0,
                -0.0010879039764404297
            ]
        },
        {
            "mesh" : 2,
            "name" : "Plane.015",
            "scale" : [
                1,
                0.9700000286102295,
                1
            ],
            "translation" : [
                -0.250742644071579,
                0.001815199851989746,
                -1.4936621189117432
            ]
        },
        {
            "mesh" : 3,
            "name" : "Plane.016",
            "scale" : [
                1,
                0.9700000286102295,
                1
            ],
            "translation" : [
                -0.250742644071579,
                0.001815199851989746,
                -1.4925681352615356
            ]
        },
        {
            "mesh" : 4,
            "name" : "Plane.017",
            "scale" : [
                1,
                0.9700000286102295,
                1
            ],
            "translation" : [
                -1.4977185726165771,
                0.001815199851989746,
                -0.0013136863708496094
            ]
        },
        {
            "mesh" : 5,
            "name" : "Plane.018",
            "scale" : [
                1,
                0.9700000286102295,
                1
            ],
            "translation" : [
                -1.4977185726165771,
                0.001815199851989746,
                -0.00021970272064208984
            ]
        }
    ],
    "materials" : [
        {
            "doubleSided" : true,
            "name" : "Material.012",
            "pbrMetallicRoughness" : {
                "baseColorTexture" : {
                    "index" : 0
                },
                "metallicFactor" : 0,
                "roughnessFactor" : 0.5
            }
        },
        {
            "doubleSided" : true,
            "name" : "Material.013",
            "pbrMetallicRoughness" : {
                "baseColorFactor" : [
                    0,
                    0,
                    0,
                    1
                ],
                "metallicFactor" : 0,
                "roughnessFactor" : 0.5
            }
        }
    ],
    "meshes" : [
        {
            "name" : "Plane.080",
            "primitives" : [
                {
                    "attributes" : {
                        "POSITION" : 0,
                        "TEXCOORD_0" : 1,
                        "NORMAL" : 2
                    },
                    "indices" : 3,
                    "material" : 0
                }
            ]
        },
        {
            "name" : "Plane.084",
            "primitives" : [
                {
                    "attributes" : {
                        "POSITION" : 4,
                        "TEXCOORD_0" : 5,
                        "NORMAL" : 6
                    },
                    "indices" : 3,
                    "material" : 0
                }
            ]
        },
        {
            "name" : "Plane.082",
            "primitives" : [
                {
                    "attributes" : {
                        "POSITION" : 7,
                        "TEXCOORD_0" : 8,
                        "NORMAL" : 9
                    },
                    "indices" : 3,
                    "material" : 1
                }
            ]
        },
        {
            "name" : "Plane.083",
            "primitives" : [
                {
                    "attributes" : {
                        "POSITION" : 10,
                        "TEXCOORD_0" : 11,
                        "NORMAL" : 12
                    },
                    "indices" : 3,
                    "material" : 1
                }
            ]
        },
        {
            "name" : "Plane.085",
            "primitives" : [
                {
                    "attributes" : {
                        "POSITION" : 13,
                        "TEXCOORD_0" : 14,
                        "NORMAL" : 15
                    },
                    "indices" : 3,
                    "material" : 1
                }
            ]
        },
        {
            "name" : "Plane.086",
            "primitives" : [
                {
                    "attributes" : {
                        "POSITION" : 16,
                        "TEXCOORD_0" : 17,
                        "NORMAL" : 18
                    },
                    "indices" : 3,
                    "material" : 1
                }
            ]
        }
    ],
    "textures" : [
        {
            "sampler" : 0,
            "source" : 0
        }
    ],
    "images" : [
        {
            "mimeType" : "image/png",
            "name" : "tailwindGradient.png",
            "uri" : "tailwindGradient.png"
        }
    ],
    "accessors" : [
        {
            "bufferView" : 0,
            "componentType" : 5126,
            "count" : 438,
            "max" : [
                2.7387077808380127,
                0.15648402273654938,
                1.4928916692733765
            ],
            "min" : [
                -1,
                0,
                0.006440639495849609
            ],
            "type" : "VEC3"
        },
        {
            "bufferView" : 1,
            "componentType" : 5126,
            "count" : 438,
            "type" : "VEC2"
        },
        {
            "bufferView" : 2,
            "componentType" : 5126,
            "count" : 438,
            "type" : "VEC3"
        },
        {
            "bufferView" : 3,
            "componentType" : 5123,
            "count" : 864,
            "type" : "SCALAR"
        },
        {
            "bufferView" : 4,
            "componentType" : 5126,
            "count" : 438,
            "max" : [
                2.7387077808380127,
                0.15648402273654938,
                1.4928916692733765
            ],
            "min" : [
                -1,
                0,
                0.006440639495849609
            ],
            "type" : "VEC3"
        },
        {
            "bufferView" : 5,
            "componentType" : 5126,
            "count" : 438,
            "type" : "VEC2"
        },
        {
            "bufferView" : 6,
            "componentType" : 5126,
            "count" : 438,
            "type" : "VEC3"
        },
        {
            "bufferView" : 7,
            "componentType" : 5126,
            "count" : 438,
            "max" : [
                2.7387077808380127,
                0.15648402273654938,
                1.4928916692733765
            ],
            "min" : [
                -1,
                0,
                0.006440639495849609
            ],
            "type" : "VEC3"
        },
        {
            "bufferView" : 8,
            "componentType" : 5126,
            "count" : 438,
            "type" : "VEC2"
        },
        {
            "bufferView" : 9,
            "componentType" : 5126,
            "count" : 438,
            "type" : "VEC3"
        },
        {
            "bufferView" : 10,
            "componentType" : 5126,
            "count" : 438,
            "max" : [
                2.7387077808380127,
                0.15648402273654938,
                1.4928916692733765
            ],
            "min" : [
                -1,
                0,
                0.006440639495849609
            ],
            "type" : "VEC3"
        },
        {
            "bufferView" : 11,
            "componentType" : 5126,
            "count" : 438,
            "type" : "VEC2"
        },
        {
            "bufferView" : 12,
            "componentType" : 5126,
            "count" : 438,
            "type" : "VEC3"
        },
        {
            "bufferView" : 13,
            "componentType" : 5126,
            "count" : 438,
            "max" : [
                2.7387077808380127,
                0.15648402273654938,
                1.4928916692733765
            ],
            "min" : [
                -1,
                0,
                0.006440639495849609
            ],
            "type" : "VEC3"
        },
        {
            "bufferView" : 14,
            "componentType" : 5126,
            "count" : 438,
            "type" : "VEC2"
        },
        {
            "bufferView" : 15,
            "componentType" : 5126,
            "count" : 438,
            "type" : "VEC3"
        },
        {
            "bufferView" : 16,
            "componentType" : 5126,
            "count" : 438,
            "max" : [
                2.7387077808380127,
                0.15648402273654938,
                1.4928916692733765
            ],
            "min" : [
                -1,
                0,
                0.006440639495849609
            ],
            "type" : "VEC3"
        },
        {
            "bufferView" : 17,
            "componentType" : 5126,
            "count" : 438,
            "type" : "VEC2"
        },
        {
            "bufferView" : 18,
            "componentType" : 5126,
            "count" : 438,
            "type" : "VEC3"
        }
    ],
    "bufferViews" : [
        {
            "buffer" : 0,
            "byteLength" : 5256,
            "byteOffset" : 0,
            "target" : 34962
        },
        {
            "buffer" : 0,
            "byteLength" : 3504,
            "byteOffset" : 5256,
            "target" : 34962
        },
        {
            "buffer" : 0,
            "byteLength" : 5256,
            "byteOffset" : 8760,
            "target" : 34962
        },
        {
            "buffer" : 0,
            "byteLength" : 1728,
            "byteOffset" : 14016,
            "target" : 34963
        },
        {
            "buffer" : 0,
            "byteLength" : 5256,
            "byteOffset" : 15744,
            "target" : 34962
        },
        {
            "buffer" : 0,
            "byteLength" : 3504,
            "byteOffset" : 21000,
            "target" : 34962
        },
        {
            "buffer" : 0,
            "byteLength" : 5256,
            "byteOffset" : 24504,
            "target" : 34962
        },
        {
            "buffer" : 0,
            "byteLength" : 5256,
            "byteOffset" : 29760,
            "target" : 34962
        },
        {
            "buffer" : 0,
            "byteLength" : 3504,
            "byteOffset" : 35016,
            "target" : 34962
        },
        {
            "buffer" : 0,
            "byteLength" : 5256,
            "byteOffset" : 38520,
            "target" : 34962
        },
        {
            "buffer" : 0,
            "byteLength" : 5256,
            "byteOffset" : 43776,
            "target" : 34962
        },
        {
            "buffer" : 0,
            "byteLength" : 3504,
            "byteOffset" : 49032,
            "target" : 34962
        },
        {
            "buffer" : 0,
            "byteLength" : 5256,
            "byteOffset" : 52536,
            "target" : 34962
        },
        {
            "buffer" : 0,
            "byteLength" : 5256,
            "byteOffset" : 57792,
            "target" : 34962
        },
        {
            "buffer" : 0,
            "byteLength" : 3504,
            "byteOffset" : 63048,
            "target" : 34962
        },
        {
            "buffer" : 0,
            "byteLength" : 5256,
            "byteOffset" : 66552,
            "target" : 34962
        },
        {
            "buffer" : 0,
            "byteLength" : 5256,
            "byteOffset" : 71808,
            "target" : 34962
        },
        {
            "buffer" : 0,
            "byteLength" : 3504,
            "byteOffset" : 77064,
            "target" : 34962
        },
        {
            "buffer" : 0,
            "byteLength" : 5256,
            "byteOffset" : 80568,
            "target" : 34962
        }
    ],
    "samplers" : [
        {
            "magFilter" : 9729,
            "minFilter" : 9987
        }
    ],
    "buffers" : [
        {
            "byteLength" : 85824,
            "uri" : "tailwind.bin"
        }
    ]
}
